<?xml version="1.0" encoding="utf-8"?>
<svg viewBox="0 0 500 500" xmlns="http://www.w3.org/2000/svg">
  <path d="M 245.683 3.176 C 244.791 3.696 241.046 9.07 237.358 15.118 C 228.104 30.309 228 30.318 215.567 17.233 C 207.478 8.724 205.524 7.167 202.917 7.186 C 201.222 7.195 199.083 7.771 198.157 8.465 C 197.237 9.159 194.626 14.683 192.359 20.741 C 187.17 34.619 186.919 35.068 184.044 35.62 C 182.273 35.956 178.864 34.057 170.691 28.188 C 164.656 23.849 158.735 20.303 157.535 20.303 C 152.559 20.303 151.156 23.022 148.786 37.268 C 145.774 55.381 145.878 55.32 129.549 47.902 C 122.958 44.913 116.706 42.462 115.652 42.462 C 114.6 42.462 112.603 43.596 111.219 44.979 C 108.707 47.496 108.702 47.505 109.387 61.354 L 110.076 75.218 L 107.456 76.62 C 105.132 77.862 103.532 77.711 93.248 75.279 C 79.823 72.111 76.99 72.196 74.271 75.856 L 72.283 78.527 L 74.95 89.96 C 76.414 96.244 77.826 102.298 78.09 103.407 C 78.351 104.512 77.901 106.283 77.09 107.336 C 75.748 109.069 74.322 109.225 61.899 109.036 C 40.873 108.705 39.678 110.509 48.367 129.472 C 51.128 135.492 53.39 140.96 53.39 141.617 C 53.39 145.082 50.628 146.344 38.762 148.279 C 32.123 149.36 26.353 150.248 25.938 150.248 C 25.522 150.248 24.276 151.155 23.171 152.259 C 19.558 155.872 20.583 159.262 28.775 170.826 C 38.979 185.227 38.961 185.28 22.103 191.73 C 2.933 199.063 2.545 200.871 17.141 214.715 C 30.735 227.606 30.749 227.417 15.361 237.093 C 3.703 244.416 3.523 244.59 3.226 248.562 C 2.866 253.392 2.951 253.478 16.871 261.981 C 30.636 270.386 30.636 270.642 17.127 283.423 C 2.598 297.164 3.046 299.171 22.231 306.409 C 38.993 312.732 39.017 312.807 28.794 327.209 C 23.001 335.373 21.154 338.773 21.154 341.294 C 21.154 346.012 23.609 347.216 38.281 349.68 C 50.637 351.763 53.39 352.985 53.39 356.394 C 53.39 357.093 51.124 362.609 48.352 368.643 C 39.731 387.422 40.712 388.985 61.12 388.985 C 80.126 388.985 79.62 388.404 75.526 405.544 C 72.438 418.464 72.392 420.938 75.187 423.729 C 77.325 425.872 81.358 425.631 93.97 422.614 C 103.603 420.314 105.293 420.154 107.527 421.349 L 110.076 422.713 L 109.387 436.572 C 108.702 450.426 108.707 450.435 111.219 452.952 C 112.603 454.335 114.628 455.468 115.714 455.468 C 116.8 455.468 123.052 453.032 129.611 450.053 C 145.887 442.663 145.783 442.602 148.786 460.658 C 151.166 474.97 152.554 477.629 157.635 477.629 C 158.896 477.629 164.689 474.228 170.516 470.074 C 180.748 462.773 183.402 461.63 186.126 463.364 C 186.83 463.807 189.559 469.804 192.189 476.689 C 196.056 486.812 197.474 489.447 199.626 490.476 C 203.725 492.441 206.26 490.864 215.893 480.371 C 227.523 467.703 228 467.764 237.496 483.153 C 247.982 500.142 250.698 500.104 261.449 482.808 C 270.713 467.906 270.605 467.916 283.127 480.996 C 291.443 489.674 293.213 491.057 296.018 491.057 C 297.808 491.057 299.947 490.387 300.764 489.565 C 301.585 488.744 304.305 482.676 306.808 476.084 C 309.31 469.488 311.902 463.746 312.573 463.321 C 315.222 461.636 317.965 462.82 328.183 470.074 C 334.199 474.347 339.861 477.629 341.206 477.629 C 346.202 477.629 348.006 474.082 350.084 460.143 C 351.859 448.259 352.217 447.12 354.555 445.935 C 356.855 444.769 358.233 445.161 369.018 450.058 C 375.577 453.032 381.829 455.468 382.915 455.468 C 384 455.468 386.059 454.303 387.481 452.876 L 390.073 450.289 L 389.359 436.996 C 388.68 424.304 388.741 423.625 390.767 421.792 C 392.85 419.908 393.062 419.918 404.706 422.576 C 418.805 425.796 421.436 425.881 424.084 423.233 C 426.672 420.645 426.644 420.078 423.102 405.143 C 419.131 388.39 418.598 388.985 437.683 388.985 C 450.692 388.985 452.142 388.801 453.799 386.973 C 456.566 383.914 455.91 380.41 450.343 368.544 C 447.533 362.567 445.252 357.127 445.272 356.456 C 445.366 352.928 448.138 351.724 460.948 349.642 C 468.787 348.373 474.651 346.899 475.713 345.94 C 479.273 342.725 477.965 338.542 469.839 327.148 C 459.654 312.869 459.697 312.732 476.006 306.721 C 495.535 299.525 496.093 297.126 481.478 283.24 C 467.941 270.377 467.936 270.448 482.762 261.344 C 500.687 250.342 500.715 247.863 483.079 236.918 C 467.913 227.507 467.922 227.639 481.516 214.729 C 496.098 200.876 495.701 199.063 476.525 191.73 C 459.602 185.256 459.55 185.095 469.834 170.982 C 475.959 162.577 477.474 159.786 477.474 156.906 C 477.474 151.872 475.217 150.744 460.372 148.345 C 447.968 146.344 445.238 145.125 445.238 141.598 C 445.238 140.927 447.505 135.53 450.276 129.595 C 455.702 117.974 456.462 113.323 453.392 110.542 C 451.745 109.05 449.535 108.838 437.712 109.031 C 425.34 109.239 423.759 109.064 422.045 107.341 C 420.17 105.457 420.189 105.192 423.116 92.977 C 426.705 78.008 426.719 77.645 423.768 74.873 C 420.774 72.059 418.904 72.106 405.16 75.34 C 395.144 77.701 393.487 77.858 391.211 76.639 L 388.628 75.255 L 389.341 61.439 L 390.058 47.628 L 387.475 45.045 C 386.054 43.624 384.038 42.462 382.99 42.462 C 381.947 42.462 375.728 44.932 369.174 47.944 C 358.229 52.982 357.053 53.317 354.687 52.081 C 352.326 50.844 351.934 49.625 349.918 37.315 C 347.591 23.075 346.15 20.303 341.093 20.303 C 339.893 20.303 333.949 23.868 327.881 28.226 C 317.918 35.384 316.581 36.06 314.098 35.195 C 312.045 34.478 310.85 32.915 309.391 29.029 C 308.309 26.167 306.241 20.652 304.787 16.775 C 301.85 8.956 300.211 7.204 295.81 7.204 C 293.355 7.204 291.131 8.97 283.161 17.247 C 270.634 30.261 270.586 30.256 261.374 15.146 C 257.691 9.107 253.842 3.715 252.818 3.167 C 250.514 1.93 247.804 1.935 245.683 3.176 M 257.1 48.672 C 268.013 56.439 262.21 74.699 248.828 74.699 C 235.843 74.699 229.303 59.055 238.577 50.173 C 243.808 45.158 251.312 44.549 257.1 48.672 M 243.379 96.901 C 250.533 99.62 253.47 97.986 269.802 82.244 L 282.075 70.411 L 287.269 71.101 C 303.559 73.263 335.961 87.495 354.579 100.663 C 371.685 112.77 394.421 137.428 404.111 154.385 L 406.184 158.015 L 397.004 178.697 C 391.953 190.072 387.821 200.574 387.821 202.042 C 387.821 205.428 390.039 210.783 392.179 212.552 C 393.081 213.304 401.651 217.431 411.222 221.723 L 428.617 229.533 L 429.302 233.957 C 430.185 239.722 430.303 253.883 429.5 257.906 L 428.872 261.051 L 418.942 261.051 C 407.425 261.051 408.313 260.022 407.69 274.15 C 407.237 284.391 404.763 290.053 399.134 293.717 C 389.965 299.699 374.821 298.613 368.399 291.517 C 367.412 290.426 365.495 284.944 364.135 279.329 C 360.164 262.93 354.829 253.723 344.111 244.765 C 340.725 241.937 337.958 239.298 337.958 238.896 C 337.958 238.5 341.678 235.364 346.23 231.941 C 362.804 219.447 372.333 204.903 373.381 190.497 C 375.379 163.021 353.488 137.41 320.926 129.108 C 313.205 127.139 309.91 127.077 214.401 127.077 C 160.194 127.077 115.841 126.724 115.841 126.294 C 115.841 125.279 127.888 113.588 134.984 107.724 C 154.471 91.612 179.785 78.934 206 72.162 L 215.067 69.816 L 227.948 82.876 C 235.036 90.059 241.981 96.367 243.379 96.901 M 81.178 180.935 C 87.114 184.821 89.545 194.587 86.042 200.456 C 80.622 209.54 66.89 209.923 61.465 201.141 C 53.575 188.382 68.769 172.804 81.178 180.935 M 430.832 181.431 C 446.358 190.898 434.326 214.187 417.705 206.835 C 406.609 201.924 406.255 186.758 417.105 181.224 C 421.634 178.915 426.837 178.994 430.832 181.431 M 126.924 239.397 L 126.924 297.315 L 75.72 297.315 L 73.69 288.504 C 69.695 271.151 68.015 253.199 69.02 238.495 L 69.724 228.164 L 87.326 220.268 C 98.371 215.32 105.473 211.547 106.388 210.145 C 110.392 204.04 110.011 199.677 104.391 187.268 L 101.765 181.473 L 126.924 181.473 L 126.924 239.397 M 274.34 183.995 C 285.304 186.848 291.098 192.65 291.112 200.786 C 291.122 206.759 288.161 210.508 280.818 213.823 C 275.62 216.175 274.793 216.232 242.009 216.553 L 208.518 216.873 L 208.518 182.48 L 238.525 182.48 C 261.964 182.48 269.807 182.81 274.34 183.995 M 263.027 267.109 C 268.462 268.62 274.888 273.342 278.184 278.248 C 281.644 283.404 283.671 290.11 288.468 312.321 C 292.519 331.095 295.126 337.233 302.426 345.223 C 311.468 355.116 309.372 354.733 354.541 354.733 C 376.172 354.733 393.865 355.077 393.865 355.502 C 393.865 356.262 378.967 373.875 378.325 373.875 C 378.14 373.875 370.359 372.246 361.033 370.253 C 334.7 364.629 333.75 365.291 327.706 393.513 L 323.82 411.645 L 320.312 413.373 C 314.457 416.263 295.428 422.212 285.564 424.243 C 269.264 427.596 251.524 428.729 235.933 427.412 C 209.353 425.159 174.157 414.846 172.783 408.901 C 172.49 407.641 170.719 399.481 168.854 390.765 C 166.984 382.049 164.713 373.781 163.806 372.393 C 159.448 365.744 154.863 365.333 134.701 369.795 C 127.065 371.485 120.403 372.864 119.893 372.864 C 118.934 372.864 104.765 356.479 104.765 355.375 C 104.765 355.03 138.422 354.629 179.558 354.487 L 254.353 354.233 L 254.621 327.662 C 254.81 308.902 254.551 300.681 253.738 299.708 C 252.832 298.613 248.007 298.325 230.555 298.325 L 208.518 298.325 L 208.518 266.09 L 233.954 266.094 C 247.94 266.099 261.025 266.556 263.027 267.109 M 147.776 387.937 C 159.67 395.185 153.966 414.176 139.9 414.162 C 125.474 414.152 120.129 395.336 132.42 387.837 C 136.485 385.358 143.63 385.406 147.776 387.937 M 365.576 388.73 C 371.408 393.003 373.348 401.895 369.736 407.815 C 360.249 423.374 336.527 411.008 344.45 394.637 C 348.345 386.596 358.701 383.696 365.576 388.73" fill-rule="evenodd" style="fill: rgb(247, 76, 0);"/>
</svg>